<svg width="800" height="676" viewBox="0 0 800 676" fill="none" xmlns="http://www.w3.org/2000/svg">
<g style="mix-blend-mode:hard-light">
<path d="M320.123 55.0547L351.899 22.154C374.687 -4.16633 418.534 -9.66554 446.465 20.1001L783.042 378.786C810.779 408.344 803.545 455.839 768.245 475.939L431.668 667.59C408.475 680.796 382.135 677.583 363.142 663.982L31.7548 475.287C-3.54541 455.186 -10.7792 407.692 16.9576 378.133C29.7298 364.522 50.2793 361.467 66.5085 370.768L348.183 531.629C354.85 535.436 363.142 530.622 363.142 522.945V418.745C363.142 415.145 361.208 411.824 358.078 410.047L169.593 303.096C142.263 287.404 136.702 250.576 158.193 227.621L158.232 227.579L158.264 227.545C173.88 210.934 198.981 207.213 218.807 218.574L348.241 291.357C354.907 295.106 363.142 290.289 363.142 282.641V182.45C363.142 179.001 361.365 175.796 358.44 173.969L317.224 148.228C289.096 132.109 263.706 115.177 285.842 91.5867L320.123 55.0547Z" fill="url(#paint0_linear_308_2)"/>
</g>
<defs>
<linearGradient id="paint0_linear_308_2" x1="869" y1="71.0001" x2="-69" y2="605" gradientUnits="userSpaceOnUse">
<stop offset="0.244792" stop-color="#FAFAFA"/>
<stop offset="0.803294" stop-color="#FF6006"/>
</linearGradient>
</defs>
</svg>
