<svg width="820" height="238" viewBox="0 0 820 238" fill="none" xmlns="http://www.w3.org/2000/svg">
<path d="M99.6565 1.64258H146.467L245.367 234.042H192.288L171.192 182.285H73.6168L52.5168 234.042H0.759766L99.6565 1.64258ZM153.058 137.452L122.399 62.6269L91.7437 137.452H153.058Z" fill="white"/>
<path d="M242.377 146.686V146.026C242.377 95.259 283.248 54.0566 338.304 54.0566C393.029 54.0566 433.567 94.5999 433.567 145.368V146.026C433.567 196.792 392.696 237.998 337.641 237.998C282.928 237.998 242.377 197.453 242.377 146.686ZM384.126 146.686V146.026C384.126 119.986 365.33 97.24 337.643 97.24C308.958 97.24 291.827 119.329 291.827 145.368V146.026C291.827 172.074 310.619 194.809 338.306 194.809C366.987 194.809 384.126 172.73 384.126 146.686Z" fill="white"/>
<path d="M450.367 3.28906H544.65C599.706 3.28906 633.002 35.9251 633.002 83.0648V83.7257C633.002 137.125 591.462 164.816 539.705 164.816H501.143V234.044H450.371V3.28906H450.367ZM541.357 119.657C566.741 119.657 581.57 104.493 581.57 84.7144V84.0571C581.57 61.3111 565.747 49.1143 540.366 49.1143H501.139V119.657H541.357Z" fill="white"/>
<path d="M636.615 200.419L666.609 164.489C687.378 181.628 709.137 192.51 735.512 192.51C756.277 192.51 768.8 184.268 768.8 170.751V170.095C768.8 157.239 760.898 150.643 722.321 140.756C675.838 128.891 645.846 116.033 645.846 70.219V69.5581C645.846 27.693 679.462 0.00195312 726.605 0.00195312C760.231 0.00195312 788.913 10.5474 812.316 29.337L785.942 67.5808C765.506 53.4067 745.396 44.8312 725.95 44.8312C706.497 44.8312 696.278 53.7344 696.278 64.9445V65.6017C696.278 80.7627 706.164 85.7077 746.054 95.9273C792.86 108.12 819.24 124.931 819.24 165.156V165.809C819.24 211.636 784.297 237.346 734.52 237.346C699.579 237.343 664.306 225.142 636.615 200.419Z" fill="white"/>
</svg>
